<svg xmlns="http://www.w3.org/2000/svg">
	<symbol id="icon-cross" viewBox="0 0 10.192457 10.192453">
		<path fill-rule="evenodd" clip-rule="evenodd" d="m 9.3388825,10.045954 c 0.1953,0.195299 0.5118,0.195299 0.7071005,0 0.1953,-0.1953005 0.1953,-0.5119005 0,-0.7071005 l -4.2426205,-4.24264 4.2426195,-4.24258 c 0.1952,-0.19527 0.1952,-0.51185 0,-0.70711 -0.1952995,-0.195263 -0.5118995,-0.195263 -0.7070995,0 l -4.24263,4.24258 -4.24266,-4.24266 c -0.19526,-0.195258 -0.51184,-0.195258 -0.707104,0 -0.195263,0.19527 -0.195263,0.51185 0,0.70711 l 4.242654,4.24266 -4.242696,4.24274 c -0.195262,0.1952 -0.195262,0.5118 0,0.7070995 0.195266,0.1952 0.511846,0.1952 0.707106,0 l 4.2427,-4.2427295 z"/>
	</symbol>
	<symbol id="icon-cross-bold" viewBox="0 0 9.9996977 10.000261">
		<path d="M 9.0291458,4.1288338e-4 A 1,1 0 0 0 8.2928178,0.29338168 L 0.29281765,8.2933819 a 1,1 0 0 0 0,1.414062 1,1 0 0 0 1.41406235,0 L 9.7068798,1.7074441 a 1,1 0 0 0 0,-1.41406242 1,1 0 0 0 -0.677734,-0.29296879662 z"/>
		<path d="M 1.0291457,4.1288338e-4 A 1,1 0 0 0 0.29281765,0.29338168 a 1,1 0 0 0 0,1.41406242 L 8.2928178,9.7074439 a 1,1 0 0 0 1.414062,0 1,1 0 0 0 0,-1.414062 L 1.70688,0.29338168 A 1,1 0 0 0 1.0291457,4.1288338e-4 Z"/>
	</symbol>
	<symbol id="icon-ok" viewBox="0 0 15.688 11.38">
		<path d="M543.339,1491.68a1.034,1.034,0,0,1-.73-0.3l-4.315-4.31a1.033,1.033,0,0,1,1.461-1.46l3.584,3.58,8.59-8.58a1.02,1.02,0,0,1,1.46,0,1.031,1.031,0,0,1,0,1.46l-9.319,9.31A1.035,1.035,0,0,1,543.339,1491.68Z" transform="translate(-538 -1480.31)" fill-rule="evenodd"/>
	</symbol>
	<symbol id="icon-arrow-long" viewBox="0 0 26.000105 14.060141">
		<path d="m 18.986328,0 c -0.305125,0 -0.610297,0.11617425 -0.841797,0.34765625 -0.463,0.462965 -0.463,1.22063375 0,1.68359375 l 3.808594,3.8085938 H 1.1894531 C 0.53200015,5.8398438 0,6.3718569 0,7.0292969 0,7.6867369 0.53200014,8.2207031 1.1894531,8.2207031 H 21.955078 l -3.810547,3.8085939 c -0.463,0.463 -0.463,1.220594 0,1.683594 0.463,0.463 1.220594,0.463 1.683594,0 L 25.652344,7.8886719 C 25.887944,7.6531319 26.0041,7.34171 26,7.03125 26.000001,7.0305841 26,7.02996 26,7.0293 26,7.02237 25.9962,7.016672 25.9961,7.009769 25.99458,6.70651 25.882408,6.4018807 25.652344,6.171875 L 19.828125,0.34765625 C 19.596625,0.11617425 19.291453,0 18.986328,0 Z" />
	</symbol>
	<symbol id="icon-arrow-short" viewBox="0 0 6.585 11.175024">
		<path d="m 0.2925,1.71252 3.88,3.88 -3.88,3.88 c -0.39,0.39 -0.39,1.02 0,1.410004 0.39,0.39 1.02,0.39 1.41,0 l 4.59,-4.590004 c 0.39,-0.39 0.39,-1.02 0,-1.41 L 1.7025,0.2925 c -0.39,-0.39 -1.02,-0.39 -1.41,0 -0.38,0.39 -0.39,1.03 0,1.42002 z"/>
	</symbol>
	<symbol id="icon-spinner" viewBox="0 0 512 512">
		<path d="M96 256c0-6.090 0.352-12.098 1.015-18.011l-92.49-30.052c-2.958 15.57-4.525 31.632-4.525 48.063 0 73.615 31.083 139.961 80.827 186.662l57.142-78.648c-26.062-28.463-41.969-66.379-41.969-108.014zM416 256c0 41.634-15.906 79.551-41.969 108.014l57.142 78.648c49.744-46.701 80.827-113.047 80.827-186.662 0-16.431-1.566-32.493-4.524-48.063l-92.49 30.052c0.662 5.914 1.014 11.921 1.014 18.011zM288 99.204c45.967 9.331 84.772 38.371 107.225 77.913l92.489-30.051c-36.598-77.71-111.12-134.030-199.714-145.078v97.216zM116.775 177.116c22.453-39.542 61.258-68.582 107.225-77.913v-97.215c-88.594 11.048-163.115 67.368-199.713 145.077l92.488 30.051zM322.278 401.664c-20.195 9.204-42.636 14.336-66.278 14.336s-46.083-5.132-66.277-14.335l-57.146 78.655c36.603 20.183 78.668 31.68 123.423 31.68s86.82-11.497 123.424-31.68l-57.146-78.656z"/>
	</symbol>
	<symbol id="icon-pen" viewBox="0 0 512 512">
		<path d="M497.9 142.1l-46.1 46.1c-4.7 4.7-12.3 4.7-17 0l-111-111c-4.7-4.7-4.7-12.3 0-17l46.1-46.1c18.7-18.7 49.1-18.7 67.9 0l60.1 60.1c18.8 18.7 18.8 49.1 0 67.9zM284.2 99.8L21.6 362.4.4 483.9c-2.9 16.4 11.4 30.6 27.8 27.8l121.5-21.3 262.6-262.6c4.7-4.7 4.7-12.3 0-17l-111-111c-4.8-4.7-12.4-4.7-17.1 0zM124.1 339.9c-5.5-5.5-5.5-14.3 0-19.8l154-154c5.5-5.5 14.3-5.5 19.8 0s5.5 14.3 0 19.8l-154 154c-5.5 5.5-14.3 5.5-19.8 0zM88 424h48v36.3l-64.5 11.3-31.1-31.1L51.7 376H88v48z"/>
	</symbol>
</svg>
